<?xml version="1.0" encoding="UTF-8"?>
<svg width="16px" height="14px" viewBox="0 0 16 14" version="1.1" xmlns="http://www.w3.org/2000/svg" xmlns:xlink="http://www.w3.org/1999/xlink">
    <!-- Generator: Sketch 52.2 (67145) - http://www.bohemiancoding.com/sketch -->
    <title>MAXICONS3_Heart</title>
    <desc>Created with Sketch.</desc>
    <g id="Page-1" stroke="none" stroke-width="1" fill="none" fill-rule="evenodd">
        <g id="01-New-HomePage-Copy-2" transform="translate(-896.000000, -15.000000)" fill="#111111" fill-rule="nonzero">
            <g id="MAXICONS3_Heart" transform="translate(896.000000, 15.000000)">
                <path d="M8,13.6 C7.5,13.6 7,13.4 6.6,13 L1,7.3 C0.9,7.2 0.9,7.1 0.8,7 C0,5.9 -0.2,4.6 0.2,3.3 C0.6,1.7 1.9,0.4 3.6,0.1 C3.9,0 4.2,0 4.5,0 C6.2,3.33066907e-16 7.3,1 8,1.9 C8.7,1 9.8,3.33066907e-16 11.5,3.33066907e-16 C11.8,3.33066907e-16 12.2,3.33066907e-16 12.5,0.1 C14.1,0.5 15.4,1.7 15.8,3.3 C16.2,4.7 16,6 15.2,7.1 C15.2,7.2 15.1,7.3 15,7.3 L9.4,13 C9,13.4 8.5,13.6 8,13.6 Z M2.5,6 L8,11.6 L13.5,6 C14,5.4 14.1,4.6 13.9,3.9 C13.7,3 13,2.3 12.1,2.1 C11.9,2 11.7,2 11.5,2 C9.8,2 9,4.3 8.9,4.3 C8.8,4.7 8.4,5 8,5 C7.6,5 7.2,4.7 7,4.3 C7,4.3 6.3,2 4.5,2 C4.3,2 4.1,2 4,2.1 C3.1,2.3 2.3,3 2.1,3.8 C1.9,4.6 2,5.4 2.5,6 Z" id="Shape"></path>
            </g>
        </g>
    </g>
</svg>