<?xml version="1.0" encoding="UTF-8"?>
<svg width="14px" height="12px" viewBox="0 0 14 12" version="1.1" xmlns="http://www.w3.org/2000/svg" xmlns:xlink="http://www.w3.org/1999/xlink">
    <!-- Generator: Sketch 52.2 (67145) - http://www.bohemiancoding.com/sketch -->
    <title>MAXICONS2_catalogue</title>
    <desc>Created with Sketch.</desc>
    <g id="Page-1" stroke="none" stroke-width="1" fill="none" fill-rule="evenodd">
        <g id="01-HomePage" transform="translate(-883.000000, -39.000000)" fill="#000000">
            <g id="MAXICONS2_catalogue" transform="translate(883.000000, 39.000000)">
                <path d="M1,2 L9,2 C9.6,2 10,1.6 10,1 C10,0.4 9.6,0 9,0 L1,0 C0.4,0 0,0.4 0,1 C0,1.6 0.4,2 1,2 Z" id="Path"></path>
                <path d="M9,5 L1,5 C0.4,5 0,5.4 0,6 C0,6.6 0.4,7 1,7 L9,7 C9.6,7 10,6.6 10,6 C10,5.4 9.6,5 9,5 Z" id="Path"></path>
                <path d="M9,10 L1,10 C0.4,10 0,10.4 0,11 C0,11.6 0.4,12 1,12 L9,12 C9.6,12 10,11.6 10,11 C10,10.4 9.6,10 9,10 Z" id="Path"></path>
                <circle id="Oval" cx="13" cy="1" r="1"></circle>
                <circle id="Oval" cx="13" cy="6" r="1"></circle>
                <circle id="Oval" cx="13" cy="11" r="1"></circle>
            </g>
        </g>
    </g>
</svg>