<?xml version="1.0" encoding="UTF-8"?>
<svg width="16px" height="16px" viewBox="0 0 16 16" version="1.1" xmlns="http://www.w3.org/2000/svg" xmlns:xlink="http://www.w3.org/1999/xlink">
    <!-- Generator: Sketch 52.2 (67145) - http://www.bohemiancoding.com/sketch -->
    <title>MAXICONS2_instruction</title>
    <desc>Created with Sketch.</desc>
    <g id="Page-1" stroke="none" stroke-width="1" fill="none" fill-rule="evenodd">
        <g id="01-HomePage" transform="translate(-761.000000, -37.000000)" fill="#000000">
            <g id="MAXICONS2_instruction" transform="translate(761.000000, 37.000000)">
                <path d="M8,0 C3.6,0 0,3.6 0,8 C0,12.4 3.6,16 8,16 C12.4,16 16,12.4 16,8 C16,3.6 12.4,0 8,0 Z M8,14 C4.7,14 2,11.3 2,8 C2,4.7 4.7,2 8,2 C11.3,2 14,4.7 14,8 C14,11.3 11.3,14 8,14 Z" id="Shape" fill-rule="nonzero"></path>
                <path d="M8,7 L7,7 C6.4,7 6,7.4 6,8 C6,8.6 6.4,9 7,9 L7,11 C7,11.6 7.4,12 8,12 C8.6,12 9,11.6 9,11 L9,8 C9,7.4 8.6,7 8,7 Z" id="Path"></path>
                <circle id="Oval" cx="8" cy="5" r="1"></circle>
            </g>
        </g>
    </g>
</svg>