<?xml version="1.0" encoding="UTF-8"?>
<svg width="14px" height="16px" viewBox="0 0 14 16" version="1.1" xmlns="http://www.w3.org/2000/svg" xmlns:xlink="http://www.w3.org/1999/xlink">
    <!-- Generator: Sketch 52.2 (67145) - http://www.bohemiancoding.com/sketch -->
    <title>MAXICONS2_profile</title>
    <desc>Created with Sketch.</desc>
    <g id="Page-1" stroke="none" stroke-width="1" fill="none" fill-rule="evenodd">
        <g id="01-HomePage" transform="translate(-217.000000, -37.000000)" fill="#000000" fill-rule="nonzero">
            <g id="MAXICONS2_profile" transform="translate(217.000000, 37.000000)">
                <path d="M13.7,13 C12.8,11.4 11.3,10 9.4,9.4 C10.9,8.5 12,6.9 12,5 C12,2.2 9.8,0 7,0 C4.2,0 2,2.2 2,5 C2,6.9 3.1,8.5 4.6,9.4 C2.7,10 1.2,11.3 0.3,13 C-0.5,14.3 0.5,16 2,16 L12,16 C13.5,16 14.5,14.3 13.7,13 Z M7,2 C8.7,2 10,3.3 10,5 C10,6.7 8.7,8 7,8 C5.3,8 4,6.7 4,5 C4,3.3 5.3,2 7,2 Z M2,14 C3.1,12 4.8,11 7,11 C9.2,11 10.9,12 12,14 L2,14 Z" id="Shape"></path>
            </g>
        </g>
    </g>
</svg>