<?xml version="1.0" encoding="UTF-8"?>
<svg width="16px" height="15px" viewBox="0 0 16 15" version="1.1" xmlns="http://www.w3.org/2000/svg" xmlns:xlink="http://www.w3.org/1999/xlink">
    <!-- Generator: Sketch 52.2 (67145) - http://www.bohemiancoding.com/sketch -->
    <title>MAXICONS2_guide</title>
    <desc>Created with Sketch.</desc>
    <g id="Page-1" stroke="none" stroke-width="1" fill="none" fill-rule="evenodd">
        <g id="01-HomePage" transform="translate(-474.000000, -382.000000)" fill="#000000">
            <g id="MAXICONS2_guide" transform="translate(474.000000, 382.000000)">
                <path d="M15.3,7.1 L11.8,2.2 L11.7,2.1 C10.9,1.3 9.7,1.3 8.9,2.1 L6.7,4.1 L4.3,1.6 C3.3,0.6 1.7,0.6 0.8,1.6 C-0.2,2.6 -0.2,4.2 0.8,5.1 L4.7,9 L4,9.7 C3.2,10.5 3.2,11.7 4,12.5 C4.1,12.6 7.7,14.8 7.7,14.8 C8,15.1 8.5,15 8.9,14.7 L15.3,8.3 C15.6,8 15.6,7.5 15.3,7.1 Z M8,12.7 L5.3,11.1 L6,10.5 L6.7,11.2 C7.1,11.6 7.7,11.6 8.1,11.2 C8.5,10.8 8.5,10.2 8.1,9.8 L6.7,8.3 L2.1,3.7 C2,3.6 2,3.2 2.1,3 C2.2,2.8 2.6,2.8 2.8,3 L6,6.2 C6.4,6.6 7,6.6 7.4,6.2 L9.4,4.2 C9.8,3.8 10.6,3.8 10.9,4.3 L13.2,7.5 L8,12.7 Z" id="Shape" fill-rule="nonzero"></path>
                <path d="M15.7,10.5 C15.3,10.1 14.7,10.1 14.3,10.5 L11.5,13.3 C11.1,13.7 11.1,14.3 11.5,14.7 C11.9,15.1 12.5,15.1 12.9,14.7 L15.7,11.9 C16.1,11.5 16.1,10.9 15.7,10.5 Z" id="Path"></path>
            </g>
        </g>
    </g>
</svg>