<?xml version="1.0" encoding="UTF-8"?>
<svg width="16px" height="12px" viewBox="0 0 16 12" version="1.1" xmlns="http://www.w3.org/2000/svg" xmlns:xlink="http://www.w3.org/1999/xlink">
    <!-- Generator: Sketch 52.2 (67145) - http://www.bohemiancoding.com/sketch -->
    <title>MAXICONS1_mail</title>
    <desc>Created with Sketch.</desc>
    <g id="Page-1" stroke="none" stroke-width="1" fill="none" fill-rule="evenodd">
        <g id="01-HomePage" transform="translate(-663.000000, -39.000000)" fill="#000000" fill-rule="nonzero">
            <g id="MAXICONS1_mail" transform="translate(663.000000, 39.000000)">
                <path d="M15,12 L1,12 C0.4,12 0,11.6 0,11 L0,1 C0,0.4 0.4,0 1,0 L15,0 C15.6,0 16,0.4 16,1 L16,11 C16,11.6 15.6,12 15,12 Z M2,10 L14,10 L14,3.3 L8.6,7.8 C8.2,8.1 7.7,8.1 7.3,7.8 L2,3.3 L2,10 Z M3.6,2 L8,5.7 L12.4,2 L3.6,2 Z" id="Shape"></path>
            </g>
        </g>
    </g>
</svg>